<?xml version="1.0" encoding="UTF-8" standalone="no"?>
<svg width="160px" height="160px" viewBox="0 0 160 160" version="1.1" xmlns="http://www.w3.org/2000/svg" xmlns:xlink="http://www.w3.org/1999/xlink">
    <!-- Generator: Sketch 49 (51002) - http://www.bohemiancoding.com/sketch -->
    <title>Group 11</title>
    <desc>Created with Sketch.</desc>
    <defs>
        <circle id="path-1" cx="80" cy="80" r="80"></circle>
    </defs>
    <g id="Page-1" stroke="none" stroke-width="1" fill="none" fill-rule="evenodd">
        <g id="测试执行－空" transform="translate(-778.000000, -262.000000)">
            <g id="测试执行-空">
                <g id="Group-8" transform="translate(703.000000, 212.000000)">
                    <g id="Group-6" transform="translate(75.000000, 50.000000)">
                        <g id="Group-11">
                            <mask id="mask-2" fill="white">
                                <use xlink:href="#path-1"></use>
                            </mask>
                            <use id="Mask" fill="#5E92F2" xlink:href="#path-1"></use>
                            <g id="Group-5" mask="url(#mask-2)">
                                <g transform="translate(20.000000, 15.000000)">
                                    <path d="M97.6371593,49.1164284 L116.172314,92.0782318 C116.75779,93.4462963 116.128289,95.030352 114.763478,95.6233746 L43.5532386,126.361607 C42.1866042,126.946711 40.6041034,126.316916 40.0132188,124.952772 L21.4780644,81.9909684 C20.8957431,80.6271241 21.5224623,79.0488894 22.881777,78.4560716 L94.0920164,47.7178388 C95.4572397,47.1280768 97.0423259,47.753407 97.6371593,49.1164284 Z" id="_路径_13" fill="#EBEBEB" fill-rule="nonzero"></path>
                                    <path d="M77.3396795,2.06643997 L95.4957291,44.1419577 C96.0812059,45.5100222 95.451704,47.0940779 94.0868934,47.6871005 L22.876654,78.4253334 C22.0356407,78.7865361 21.0679689,78.6897689 20.3151346,78.1691814 C19.8854672,77.8891908 19.5485044,77.4880446 19.3468803,77.0164977 L1.18570769,34.9256109 C0.603386369,33.5617666 1.23010563,31.9835319 2.58942033,31.3907141 L73.7996597,0.652481261 C75.1676952,0.067996433 76.7507621,0.700306805 77.3396795,2.06643997 Z" id="_路径_14" fill="#0F3840" fill-rule="nonzero"></path>
                                    <polygon id="_路径_15" fill="#B5CFFF" fill-rule="nonzero" points="5.74878874 35.6701088 74.1235252 6.16668996 91.2905531 45.9516047 22.9158166 75.4550236"></polygon>
                                    <path d="M44.1014038,16.4673021 C44.1522691,16.5846971 44.1537821,16.7176166 44.1056022,16.836139 C44.0574224,16.9546615 43.9635987,17.0488262 43.8452518,17.0974358 L34.4700908,21.1446365 C34.228178,21.2478018 33.9484271,21.1354428 33.8450801,20.8936076 C33.7419148,20.6516948 33.8542738,20.3719439 34.096109,20.2685968 L43.476393,16.2213962 C43.7169054,16.1176109 43.9960912,16.2274545 44.1014038,16.4673021 Z" id="_路径_17" fill="#101625" fill-rule="nonzero"></path>
                                    <g id="Group-14" stroke-width="1" fill="none" fill-rule="evenodd" transform="translate(24.890008, 50.653340)">
                                        <rect id="_路径_21" fill="#0F3840" fill-rule="nonzero" transform="translate(3.121743, 31.156290) rotate(-23.340000) translate(-3.121743, -31.156290) " x="0.964944102" y="29.0327902" width="4.31359867" height="4.24699917"></rect>
                                        <rect id="_路径_22" fill="#0F3840" fill-rule="nonzero" transform="translate(9.005394, 28.637646) rotate(-23.340000) translate(-9.005394, -28.637646) " x="6.84859429" y="26.5141469" width="4.31359867" height="4.24699917"></rect>
                                        <rect id="_路径_23" fill="#0F3840" fill-rule="nonzero" transform="translate(14.895417, 26.106251) rotate(-23.330000) translate(-14.895417, -26.106251) " x="12.7386179" y="23.9827515" width="4.31359867" height="4.24699917"></rect>
                                        <rect id="_路径_24" fill="#0F3840" fill-rule="nonzero" transform="translate(20.779847, 23.548710) rotate(-23.340000) translate(-20.779847, -23.548710) " x="18.6230474" y="21.4252106" width="4.31359867" height="4.24699917"></rect>
                                        <rect id="_路径_25" fill="#0F3840" fill-rule="nonzero" transform="translate(26.666375, 21.029097) rotate(-23.330000) translate(-26.666375, -21.029097) " x="24.5095754" y="18.905597" width="4.31359867" height="4.24699917"></rect>
                                        <rect id="_路径_26" fill="#0F3840" fill-rule="nonzero" transform="translate(32.555962, 18.485606) rotate(-23.330000) translate(-32.555962, -18.485606) " x="30.3991628" y="16.3621061" width="4.31359867" height="4.24699917"></rect>
                                        <rect id="_路径_27" fill="#0F3840" fill-rule="nonzero" transform="translate(38.436531, 15.915370) rotate(-23.350000) translate(-38.436531, -15.915370) " x="36.2797315" y="13.7918708" width="4.31359867" height="4.24699917"></rect>
                                        <rect id="_路径_28" fill="#0F3840" fill-rule="nonzero" transform="translate(44.326920, 13.408451) rotate(-23.330000) translate(-44.326920, -13.408451) " x="42.1701204" y="11.2849516" width="4.31359867" height="4.24699917"></rect>
                                        <rect id="_路径_29" fill="#0F3840" fill-rule="nonzero" transform="translate(50.216507, 10.870083) rotate(-23.330000) translate(-50.216507, -10.870083) " x="48.0597078" y="8.74658382" width="4.31359867" height="4.24699917"></rect>
                                        <rect id="_路径_30" fill="#0F3840" fill-rule="nonzero" transform="translate(56.100971, 8.326593) rotate(-23.330000) translate(-56.100971, -8.326593) " x="53.9441721" y="6.20309296" width="4.31359867" height="4.24699917"></rect>
                                        <rect id="_路径_31" fill="#0F3840" fill-rule="nonzero" transform="translate(61.985436, 5.788225) rotate(-23.330000) translate(-61.985436, -5.788225) " x="59.8286365" y="3.66472514" width="4.31359867" height="4.24699917"></rect>
                                        <rect id="_路径_32" fill="#0F3840" fill-rule="nonzero" transform="translate(67.870140, 3.220139) rotate(-23.350000) translate(-67.870140, -3.220139) " x="65.713341" y="1.09663965" width="4.31359867" height="4.24699917"></rect>
                                        <rect id="_路径_33" fill="#0F3840" fill-rule="nonzero" transform="translate(8.456416, 36.215831) rotate(-23.340000) translate(-8.456416, -36.215831) " x="3.40253846" y="34.0923313" width="10.1077556" height="4.24699917"></rect>
                                        <rect id="_路径_34" fill="#0F3840" fill-rule="nonzero" transform="translate(11.228095, 35.021196) rotate(-23.340000) translate(-11.228095, -35.021196) " x="9.19680966" y="32.8976963" width="4.06256977" height="4.24699917"></rect>
                                        <rect id="_路径_35" fill="#0F3840" fill-rule="nonzero" transform="translate(16.778185, 32.629477) rotate(-23.340000) translate(-16.778185, -32.629477) " x="14.7468998" y="30.5059775" width="4.06256977" height="4.24699917"></rect>
                                        <rect id="_路径_36" fill="#0F3840" fill-rule="nonzero" transform="translate(22.942505, 29.678891) rotate(-23.498566) translate(-22.942505, -29.678891) " x="20.9047301" y="27.5486069" width="4.07554926" height="4.26056789"></rect>
                                        <rect id="_路径_37" fill="#0F3840" fill-rule="nonzero" transform="translate(27.875107, 27.861105) rotate(-23.330000) translate(-27.875107, -27.861105) " x="25.8438222" y="25.737605" width="4.06256977" height="4.24699917"></rect>
                                        <rect id="_路径_38" fill="#0F3840" fill-rule="nonzero" transform="translate(33.418209, 25.438952) rotate(-23.340000) translate(-33.418209, -25.438952) " x="31.386924" y="23.3154521" width="4.06256977" height="4.24699917"></rect>
                                        <rect id="_路径_39" fill="#0F3840" fill-rule="nonzero" transform="translate(38.966689, 23.080420) rotate(-23.340000) translate(-38.966689, -23.080420) " x="36.9354037" y="20.9569204" width="4.06256977" height="4.24699917"></rect>
                                        <rect id="_路径_40" fill="#0F3840" fill-rule="nonzero" transform="translate(44.510699, 20.680321) rotate(-23.330000) translate(-44.510699, -20.680321) " x="42.4794143" y="18.5568216" width="4.06256977" height="4.24699917"></rect>
                                        <rect id="_路径_41" fill="#0F3840" fill-rule="nonzero" transform="translate(50.061746, 18.281613) rotate(-23.340000) translate(-50.061746, -18.281613) " x="48.0304608" y="16.1581138" width="4.06256977" height="4.24699917"></rect>
                                        <rect id="_路径_42" fill="#0F3840" fill-rule="nonzero" transform="translate(55.612413, 15.898331) rotate(-23.330000) translate(-55.612413, -15.898331) " x="53.5811285" y="13.7748315" width="4.06256977" height="4.24699917"></rect>
                                        <rect id="_路径_43" fill="#0F3840" fill-rule="nonzero" transform="translate(63.928481, 12.293295) rotate(-23.340000) translate(-63.928481, -12.293295) " x="58.8746034" y="10.1697952" width="10.1077556" height="4.24699917"></rect>
                                        <rect id="_路径_44" fill="#0F3840" fill-rule="nonzero" transform="translate(68.680546, 10.244442) rotate(-23.340000) translate(-68.680546, -10.244442) " x="64.4924619" y="8.12094252" width="8.37616845" height="4.24699917"></rect>
                                        <rect id="_路径_45" fill="#0F3840" fill-rule="nonzero" transform="translate(8.475583, 43.578597) rotate(-23.340000) translate(-8.475583, -43.578597) " x="6.31878409" y="41.4550977" width="4.31359867" height="4.24699917"></rect>
                                        <rect id="_路径_46" fill="#0F3840" fill-rule="nonzero" transform="translate(14.359234, 41.029216) rotate(-23.340000) translate(-14.359234, -41.029216) " x="12.2024343" y="38.9057161" width="4.31359867" height="4.24699917"></rect>
                                        <rect id="_路径_47" fill="#0F3840" fill-rule="nonzero" transform="translate(20.248007, 38.505449) rotate(-23.340000) translate(-20.248007, -38.505449) " x="18.0912075" y="36.3819497" width="4.31359867" height="4.24699917"></rect>
                                        <rect id="_路径_48" fill="#0F3840" fill-rule="nonzero" transform="translate(26.133687, 35.955649) rotate(-23.340000) translate(-26.133687, -35.955649) " x="23.9768874" y="33.832149" width="4.31359867" height="4.24699917"></rect>
                                        <rect id="_路径_49" fill="#0F3840" fill-rule="nonzero" transform="translate(32.021194, 33.405522) rotate(-23.350000) translate(-32.021194, -33.405522) " x="29.8643947" y="31.2820221" width="4.31359867" height="4.24699917"></rect>
                                        <rect id="_路径_50" fill="#0F3840" fill-rule="nonzero" transform="translate(38.556400, 30.239761) rotate(-23.498566) translate(-38.556400, -30.239761) " x="36.3927098" y="28.1094772" width="4.32738017" height="4.26056789"></rect>
                                        <rect id="_路径_51" fill="#0F3840" fill-rule="nonzero" transform="translate(43.791790, 28.337823) rotate(-23.340000) translate(-43.791790, -28.337823) " x="41.6349907" y="26.2143233" width="4.31359867" height="4.24699917"></rect>
                                        <rect id="_路径_52" fill="#0F3840" fill-rule="nonzero" transform="translate(49.680563, 25.808933) rotate(-23.340000) translate(-49.680563, -25.808933) " x="47.5237639" y="23.6854339" width="4.31359867" height="4.24699917"></rect>
                                        <rect id="_路径_53" fill="#0F3840" fill-rule="nonzero" transform="translate(55.564213, 23.254429) rotate(-23.340000) translate(-55.564213, -23.254429) " x="53.4074141" y="21.1309293" width="4.31359867" height="4.24699917"></rect>
                                        <rect id="_路径_54" fill="#0F3840" fill-rule="nonzero" transform="translate(61.447864, 20.715293) rotate(-23.340000) translate(-61.447864, -20.715293) " x="59.2910643" y="18.5917938" width="4.31359867" height="4.24699917"></rect>
                                        <rect id="_路径_55" fill="#0F3840" fill-rule="nonzero" transform="translate(67.338667, 18.180862) rotate(-23.340000) translate(-67.338667, -18.180862) " x="65.1818672" y="16.0573622" width="4.31359867" height="4.24699917"></rect>
                                        <rect id="_路径_56" fill="#0F3840" fill-rule="nonzero" transform="translate(73.229274, 15.663215) rotate(-23.330000) translate(-73.229274, -15.663215) " x="71.0724744" y="13.5397156" width="4.31359867" height="4.24699917"></rect>
                                        <rect id="_路径_57" fill="#0F3840" fill-rule="nonzero" transform="translate(11.058779, 49.819774) rotate(-23.340000) translate(-11.058779, -49.819774) " x="8.99931752" y="47.6962748" width="4.1189232" height="4.24699917"></rect>
                                        <rect id="_路径_58" fill="#0F3840" fill-rule="nonzero" transform="translate(16.687741, 47.405249) rotate(-23.340000) translate(-16.687741, -47.405249) " x="14.628279" y="45.2817491" width="4.1189232" height="4.24699917"></rect>
                                        <rect id="_路径_59" fill="#0F3840" fill-rule="nonzero" transform="translate(22.304846, 44.962434) rotate(-23.340000) translate(-22.304846, -44.962434) " x="20.245384" y="42.8389342" width="4.1189232" height="4.24699917"></rect>
                                        <rect id="_路径_60" fill="#0F3840" fill-rule="nonzero" transform="translate(27.933807, 42.537662) rotate(-23.340000) translate(-27.933807, -42.537662) " x="25.8743455" y="40.4141625" width="4.1189232" height="4.24699917"></rect>
                                        <rect id="_路径_61" fill="#0F3840" fill-rule="nonzero" transform="translate(33.555909, 40.104518) rotate(-23.330000) translate(-33.555909, -40.104518) " x="31.496447" y="37.9810186" width="4.1189232" height="4.24699917"></rect>
                                        <rect id="_路径_62" fill="#0F3840" fill-rule="nonzero" transform="translate(39.174750, 37.690568) rotate(-23.340000) translate(-39.174750, -37.690568) " x="37.1152889" y="35.567068" width="4.1189232" height="4.24699917"></rect>
                                        <rect id="_路径_63" fill="#0F3840" fill-rule="nonzero" transform="translate(44.801682, 35.261092) rotate(-23.340000) translate(-44.801682, -35.261092) " x="42.7422207" y="33.1375925" width="4.1189232" height="4.24699917"></rect>
                                        <rect id="_路径_64" fill="#0F3840" fill-rule="nonzero" transform="translate(50.420817, 32.838350) rotate(-23.340000) translate(-50.420817, -32.838350) " x="48.3613553" y="30.7148504" width="4.1189232" height="4.24699917"></rect>
                                        <rect id="_路径_65" fill="#0F3840" fill-rule="nonzero" transform="translate(56.042626, 30.398628) rotate(-23.340000) translate(-56.042626, -30.398628) " x="53.9831641" y="28.2751288" width="4.1189232" height="4.24699917"></rect>
                                        <rect id="_路径_66" fill="#0F3840" fill-rule="nonzero" transform="translate(59.804385, 28.775934) rotate(-23.340000) translate(-59.804385, -28.775934) " x="55.7136382" y="26.652434" width="8.18149297" height="4.24699917"></rect>
                                        <rect id="_路径_67" fill="#0F3840" fill-rule="nonzero" transform="translate(67.288692, 25.556657) rotate(-23.340000) translate(-67.288692, -25.556657) " x="65.2292306" y="23.4331574" width="4.1189232" height="4.24699917"></rect>
                                        <rect id="_路径_68" fill="#0F3840" fill-rule="nonzero" transform="translate(74.449169, 22.454527) rotate(-23.340000) translate(-74.449169, -22.454527) " x="70.7144742" y="20.3310273" width="7.46939058" height="4.24699917"></rect>
                                        <rect id="_路径_69" fill="#0F3840" fill-rule="nonzero" transform="translate(13.829423, 55.980413) rotate(-23.340000) translate(-13.829423, -55.980413) " x="11.6726241" y="53.856913" width="4.31359867" height="4.24699917"></rect>
                                        <rect id="_路径_70" fill="#0F3840" fill-rule="nonzero" transform="translate(19.715868, 53.435996) rotate(-23.350000) translate(-19.715868, -53.435996) " x="17.5590685" y="51.3124961" width="4.31359867" height="4.24699917"></rect>
                                        <rect id="_路径_71" fill="#0F3840" fill-rule="nonzero" transform="translate(25.603877, 50.891476) rotate(-23.340000) translate(-25.603877, -50.891476) " x="23.4470772" y="48.7679767" width="4.31359867" height="4.24699917"></rect>
                                        <rect id="_路径_72" fill="#0F3840" fill-rule="nonzero" transform="translate(31.486354, 48.384773) rotate(-23.330000) translate(-31.486354, -48.384773) " x="29.3295544" y="46.2612731" width="4.31359867" height="4.24699917"></rect>
                                        <rect id="_路径_73" fill="#0F3840" fill-rule="nonzero" transform="translate(46.206157, 42.015876) rotate(-23.340000) translate(-46.206157, -42.015876) " x="34.4334136" y="39.8923761" width="23.5454864" height="4.24699917"></rect>
                                        <rect id="_路径_74" fill="#0F3840" fill-rule="nonzero" transform="translate(43.260405, 43.308037) rotate(-23.330000) translate(-43.260405, -43.308037) " x="41.1036061" y="41.1845374" width="4.31359867" height="4.24699917"></rect>
                                        <rect id="_路径_75" fill="#0F3840" fill-rule="nonzero" transform="translate(49.145630, 40.744761) rotate(-23.340000) translate(-49.145630, -40.744761) " x="46.9888306" y="38.6212617" width="4.31359867" height="4.24699917"></rect>
                                        <rect id="_路径_76" fill="#0F3840" fill-rule="nonzero" transform="translate(55.034403, 38.220995) rotate(-23.340000) translate(-55.034403, -38.220995) " x="52.8776039" y="36.0974953" width="4.31359867" height="4.24699917"></rect>
                                        <rect id="_路径_77" fill="#0F3840" fill-rule="nonzero" transform="translate(60.918053, 35.661367) rotate(-23.340000) translate(-60.918053, -35.661367) " x="58.7612541" y="33.5378677" width="4.31359867" height="4.24699917"></rect>
                                        <rect id="_路径_78" fill="#0F3840" fill-rule="nonzero" transform="translate(66.805415, 33.149024) rotate(-23.330000) translate(-66.805415, -33.149024) " x="64.6486154" y="31.0255243" width="4.31359867" height="4.24699917"></rect>
                                        <rect id="_路径_79" fill="#0F3840" fill-rule="nonzero" transform="translate(72.691908, 30.610237) rotate(-23.330000) translate(-72.691908, -30.610237) " x="70.5351086" y="28.4867376" width="4.31359867" height="4.24699917"></rect>
                                        <rect id="_路径_80" fill="#0F3840" fill-rule="nonzero" transform="translate(78.576157, 28.048665) rotate(-23.340000) translate(-78.576157, -28.048665) " x="76.4193573" y="25.925165" width="4.31359867" height="4.24699917"></rect>
                                        <rect id="_路径_81" fill="#DEDEDE" fill-rule="nonzero" transform="translate(50.349914, 51.619078) rotate(-23.340000) translate(-50.349914, -51.619078) " x="38.5771708" y="45.9017667" width="23.5454864" height="11.4346226"></rect>
                                    </g>
                                    <g id="Group-10" stroke-width="1" fill="none" fill-rule="evenodd" transform="translate(7.535714, 4.417915)" opacity="0.1">
                                        <path d="M45.0187035,5.41505202 L43.1846556,11.8547118 L27.8514005,65.6466193 L26.9036383,68.9919636 L15.3460627,73.9766804 C14.5050494,74.3378831 13.5373777,74.2411159 12.7845433,73.7205284 L14.321455,68.5001519 L29.0604376,17.9460049 L29.7418018,15.4971924 L30.0901684,14.3086474 L30.9149777,11.485853 L45.0187035,5.41505202 Z" id="_路径_88" fill="#FFFFFF" fill-rule="nonzero"></path>
                                        <polygon id="_路径_89" fill="#FFFFFF" fill-rule="nonzero" points="55.643886 0.829932286 53.8047151 7.26959207 38.4765829 61.0768686 37.5236977 64.422213 29.4600347 67.9007563 30.4436581 64.5400429 46.1765103 10.558583 48.0617886 4.10355408"></polygon>
                                        <polygon id="_路径_90" fill="#FFFFFF" fill-rule="nonzero" points="14.6288373 18.5249083 12.7947894 24.9645681 5.91967134 49.104327 4.22906853 55.0265598 0.13063749 45.5335689 1.84173245 39.6625664 5.16658464 28.2586821 7.05186292 21.7985301"></polygon>
                                    </g>
                                    <g id="Group-18" stroke-width="1" fill="none" fill-rule="evenodd" transform="translate(45.827459, 41.712246) rotate(-24.000000) translate(-45.827459, -41.712246) translate(22.327459, 24.212246)" fill-opacity="0.26">
                                        <path d="M8.95620456,33.1298711 C4.65854126,32.1727255 1.47193687,28.4612662 1.50880448,24.053936 L1.66645893,5.2071699 C0.963577793,4.71584409 0.506808815,3.92020673 0.506808815,3.02226549 C0.506808815,1.53000127 1.76832324,0.320282101 3.32448016,0.320282101 C4.88063707,0.320282101 6.1421515,1.53000127 6.1421515,3.02226549 C6.1421515,4.39070969 5.08129912,5.5215517 3.70520666,5.69979258 L3.6872492,6.71636203 C3.89016498,9.52691706 6.00738581,11.8950544 8.91421844,12.7541614 C9.02510177,12.483768 9.17897531,12.2348455 9.37096801,12.0205214 C9.79471273,11.5474893 10.3694339,11.2817427 10.9686995,11.2817427 L44.1512443,11.2817427 C44.7505098,11.2817427 45.325231,11.5474893 45.7489757,12.0205214 C46.1727205,12.4935535 46.4107778,13.1351226 46.4107778,13.804091 C46.4107778,14.4730594 46.1727205,15.1146285 45.7489757,15.5876606 C45.325231,16.0606927 44.7505098,16.3264393 44.1512443,16.3264393 L10.9686995,16.3264393 C9.90102113,16.3264393 9.00630095,15.4997846 8.77013275,14.3885504 C6.65196383,13.8594815 4.84204955,12.6899618 3.60919648,11.1349162 L3.54547266,14.7423132 C3.485889,18.115336 5.77440026,21.0025137 8.96559065,21.9700087 C9.34305658,21.1651048 10.0984205,20.6158672 10.9686995,20.6158672 L44.1512443,20.6158672 C45.3991502,20.6158672 46.4107778,21.745161 46.4107778,23.1382155 C46.4107778,23.8071838 46.1727205,24.448753 45.7489757,24.921785 C45.325231,25.3948171 44.7505098,25.6605638 44.1512443,25.6605638 L10.9686995,25.6605638 C9.89593685,25.6605638 8.99778356,24.8260173 8.76680371,23.7067804 C6.51086333,23.1114373 4.59360818,21.744692 3.33646129,19.925393 L3.30181038,24.0677283 C3.27346442,27.4563393 5.58623574,30.3395587 8.79091455,31.3052029 C9.0552288,30.2404214 9.93013806,29.4587219 10.968701,29.4587219 L44.1512427,29.4587219 C44.7505082,29.4587219 45.3252294,29.7243039 45.748974,30.1970429 C46.1727187,30.6697819 46.410776,31.3109535 46.410776,31.9795074 C46.4115214,32.6502186 46.1726442,33.2936076 45.7470093,33.7672886 C45.3213745,34.2409696 44.7440799,34.5058828 44.1428844,34.5034012 L10.9603427,34.5034012 C10.0859221,34.4997934 9.32913044,33.9424533 8.95620456,33.1298711 Z" id="Combined-Shape" fill="#000000" fill-rule="nonzero"></path>
                                    </g>
                                    <g id="_编组_6" stroke-width="1" fill="none" fill-rule="evenodd" transform="translate(59.542857, 72.314286)">
                                        <g id="Group-20" fill="#FFBE96" fill-rule="nonzero">
                                            <path d="M24.5714286,45.8514286 L21.1017143,37.8057143 L9.36228571,31.7257143 L4.30628571,24.6857143 L1.92457143,18.7428571 C1.92457143,18.7428571 3.75314286,17.056 5.00114286,18.2034286 C6.24914286,19.3508571 8.20114286,23.1725714 8.20114286,23.1725714 L10.5142857,25.5314286 L0.571428571,3.24571429 C0.571428571,3.24571429 -0.534857143,1.45828571 1.45828571,0.617142857 C3.23657143,-0.137142857 3.68457143,1.29371429 4.46628571,2.60571429 C4.57142857,2.77942857 13.0148571,17.8514286 13.0148571,17.8514286 L19.5885714,25.7142857 L28.6217143,44.1051429 L24.5714286,45.8514286 Z" id="_路径_82"></path>
                                            <path d="M16.8822857,16.8822857 C17.3913303,18.0663974 16.8451308,19.4390559 15.6617143,19.9497143 C14.4776026,20.4587588 13.1049441,19.9125594 12.5942857,18.7291429 L8.57142857,9.40342857 C8.06238403,8.21931692 8.60858346,6.84665843 9.792,6.336 C10.3611874,6.09009591 11.0047861,6.08056608 11.5810046,6.30951004 C12.1572231,6.538454 12.6187838,6.98708734 12.864,7.55657143 L16.8822857,16.8822857 Z" id="_路径_83"></path>
                                            <path d="M20.7817143,16 C21.217746,17.0124276 20.7513097,18.1867015 19.7394286,18.624 C18.7270009,19.0600317 17.552727,18.5935954 17.1154286,17.5817143 L13.6777143,9.6 C13.4670477,9.11392202 13.4585603,8.56397369 13.6541269,8.07162631 C13.8496934,7.57927893 14.2332221,7.18504428 14.72,6.976 C15.7324276,6.53996825 16.9067015,7.00640458 17.344,8.01828571 L20.7817143,16 Z" id="_路径_84"></path>
                                            <path d="M25.6,17.1337143 C25.8106666,17.6197923 25.819154,18.1697406 25.6235874,18.662088 C25.4280208,19.1544354 25.0444922,19.54867 24.5577143,19.7577143 C23.5452867,20.193746 22.3710128,19.7273097 21.9337143,18.7154286 L18.496,10.7474286 C18.0599683,9.73500094 18.5264046,8.56072704 19.5382857,8.12342857 C20.0243637,7.91276197 20.574312,7.90427461 21.0666594,8.09984117 C21.5590068,8.29540772 21.9532414,8.6789364 22.1622857,9.16571429 L25.6,17.1337143 Z" id="_路径_85"></path>
                                            <path d="M24.6857143,14.9805714 L30.1211429,27.5794286 L35.8948571,40.96 L26.4731429,45.024 L16.5302857,21.9428571 L12.6125714,21.248 C12.6125714,21.248 11.8537143,18.7748571 13.0194286,17.824 C14.6197321,16.6425203 16.2999428,15.5732953 18.048,14.624 C18.6194286,14.3771429 22.4137143,13.7782857 22.4137143,13.7782857 L24.6857143,14.9805714 Z" id="_路径_86"></path>
                                        </g>
                                        <path d="M48.1995474,56.8842549 C42.3285997,61.2574169 35.8373618,64.8442429 28.8817736,67.488793 L17.8468571,41.9108571 L22.88,39.7394286 L37.9885714,33.2205714 L48.1995474,56.8842549 Z" id="Combined-Shape" fill="#FFD740" fill-rule="nonzero"></path>
                                        <polygon id="_路径_91" fill="#FFFFFF" fill-rule="nonzero" points="19.7897143 41.0697143 18.9622857 39.5428571 34.6788571 32.6857143 35.5291429 34.2811429"></polygon>
                                    </g>
                                </g>
                            </g>
                        </g>
                    </g>
                </g>
            </g>
        </g>
    </g>
</svg>