<?xml version="1.0" encoding="UTF-8" standalone="no"?>
<svg width="1280px" height="850px" viewBox="0 0 1280 850" version="1.1" xmlns="http://www.w3.org/2000/svg" xmlns:xlink="http://www.w3.org/1999/xlink">
    <!-- Generator: Sketch 47 (45396) - http://www.bohemiancoding.com/sketch -->
    <title>bg</title>
    <desc>Created with Sketch.</desc>
    <defs>
        <rect id="path-1" x="0" y="0" width="1280" height="850"></rect>
    </defs>
    <g id="登陆" stroke="none" stroke-width="1" fill="none" fill-rule="evenodd">
        <g id="忘记密码3">
            <g id="bg">
                <mask id="mask-2" fill="white">
                    <use xlink:href="#path-1"></use>
                </mask>
                <g id="Mask"></g>
                <g id="Group-3" mask="url(#mask-2)">
                    <g transform="translate(412.500000, 940.000000) rotate(180.000000) translate(-412.500000, -940.000000) translate(-458.000000, -0.000000)" id="Combined-Shape">
                        <path d="M1741,939.612374 C1741,456.957596 1551.2886,57.7107271 1305.75002,0 L0,0 L0,1880 L1305.75,1880 C1550.89726,1821.55397 1741,1422.32137 1741,939.612374 Z" fill-opacity="0.01" fill="#000000"></path>
                        <path d="M1305.00598,939.612376 C1305.00598,456.957598 1115.40268,57.7107272 870.004007,0 L0,0 L0,1880 L870.003989,1880 C1115.01156,1821.55397 1305.00598,1422.32137 1305.00598,939.612376 Z" fill="#F7F7F7"></path>
                        <path d="M870.5,939.612376 C870.5,456.957598 680.788601,57.7107272 435.250018,0 L0,0 L0,1880 L435.25,1880 C680.397256,1821.55397 870.5,1422.32137 870.5,939.612376 Z" fill="#EFEFEE"></path>
                        <path d="M434.505983,1880 C189.777782,1821.55397 0,1422.32137 0,939.612378 C0,456.957601 189.387106,57.7107314 434.505965,4.29024137e-06 L434.505983,1880 Z" fill="#E7E7E7" transform="translate(217.252991, 940.000000) scale(-1, 1) translate(-217.252991, -940.000000) "></path>
                    </g>
                </g>
            </g>
        </g>
    </g>
</svg>